<svg xmlns="http://www.w3.org/2000/svg" xmlns:xlink="http://www.w3.org/1999/xlink" width="52" zoomAndPan="magnify" viewBox="0 0 39.75 39.749999" height="52" preserveAspectRatio="xMidYMid meet" version="1.0"><defs><clipPath id="0fcf06cda4"><path d="M 6.90625 12.519531 L 32.40625 12.519531 L 32.40625 27.519531 L 6.90625 27.519531 Z M 6.90625 12.519531 " clip-rule="nonzero"/></clipPath></defs><path fill="#100f0d" d="M 10.738281 24.871094 C 10.03125 24.871094 9.460938 24.277344 9.460938 23.546875 C 9.460938 22.816406 10.03125 22.222656 10.738281 22.222656 C 11.441406 22.222656 12.011719 22.816406 12.011719 23.546875 C 12.011719 24.277344 11.441406 24.871094 10.738281 24.871094 Z M 10.738281 21.339844 C 9.566406 21.339844 8.613281 22.332031 8.613281 23.546875 C 8.613281 24.765625 9.566406 25.753906 10.738281 25.753906 C 11.910156 25.753906 12.859375 24.765625 12.859375 23.546875 C 12.859375 22.332031 11.910156 21.339844 10.738281 21.339844 " fill-opacity="1" fill-rule="nonzero"/><path fill="#100f0d" d="M 17.535156 24.871094 C 16.828125 24.871094 16.257812 24.277344 16.257812 23.546875 C 16.257812 22.816406 16.828125 22.222656 17.535156 22.222656 C 18.238281 22.222656 18.808594 22.816406 18.808594 23.546875 C 18.808594 24.277344 18.238281 24.871094 17.535156 24.871094 Z M 17.535156 21.339844 C 16.363281 21.339844 15.410156 22.332031 15.410156 23.546875 C 15.410156 24.765625 16.363281 25.753906 17.535156 25.753906 C 18.703125 25.753906 19.65625 24.765625 19.65625 23.546875 C 19.65625 22.332031 18.703125 21.339844 17.535156 21.339844 " fill-opacity="1" fill-rule="nonzero"/><g clip-path="url(#0fcf06cda4)"><path fill="#100f0d" d="M 28.578125 26.636719 L 19.929688 26.636719 C 20.796875 25.90625 21.355469 24.796875 21.355469 23.546875 C 21.355469 22.300781 20.796875 21.1875 19.929688 20.460938 L 28.578125 20.460938 C 30.21875 20.460938 31.550781 21.84375 31.550781 23.546875 C 31.550781 25.25 30.21875 26.636719 28.578125 26.636719 Z M 17.535156 26.636719 C 15.894531 26.636719 14.558594 25.25 14.558594 23.546875 C 14.558594 21.84375 15.894531 20.460938 17.535156 20.460938 C 19.171875 20.460938 20.507812 21.84375 20.507812 23.546875 C 20.507812 25.25 19.171875 26.636719 17.535156 26.636719 Z M 13.132812 26.636719 C 13.546875 26.289062 13.890625 25.851562 14.136719 25.359375 C 14.378906 25.851562 14.722656 26.289062 15.136719 26.636719 Z M 10.738281 26.636719 C 9.097656 26.636719 7.761719 25.25 7.761719 23.546875 C 7.761719 21.84375 9.097656 20.460938 10.738281 20.460938 C 12.375 20.460938 13.710938 21.84375 13.710938 23.546875 C 13.710938 25.25 12.375 26.636719 10.738281 26.636719 Z M 15.136719 20.460938 C 14.722656 20.804688 14.378906 21.242188 14.136719 21.734375 C 13.890625 21.242188 13.546875 20.804688 13.132812 20.460938 Z M 11.160156 16.488281 C 11.160156 14.785156 12.496094 13.398438 14.136719 13.398438 C 15.773438 13.398438 17.109375 14.785156 17.109375 16.488281 C 17.109375 18.191406 15.773438 19.578125 14.136719 19.578125 C 12.496094 19.578125 11.160156 18.191406 11.160156 16.488281 Z M 25.179688 13.398438 C 26.820312 13.398438 28.152344 14.785156 28.152344 16.488281 C 28.152344 18.191406 26.820312 19.578125 25.179688 19.578125 L 16.53125 19.578125 C 17.402344 18.847656 17.957031 17.734375 17.957031 16.488281 C 17.957031 15.242188 17.402344 14.128906 16.53125 13.398438 Z M 28.578125 19.578125 L 27.578125 19.578125 C 28.445312 18.847656 29.003906 17.734375 29.003906 16.488281 C 29.003906 14.296875 27.285156 12.519531 25.179688 12.519531 L 14.136719 12.519531 C 12.027344 12.519531 10.3125 14.296875 10.3125 16.488281 C 10.3125 17.734375 10.871094 18.847656 11.738281 19.578125 L 10.738281 19.578125 C 8.628906 19.578125 6.914062 21.355469 6.914062 23.546875 C 6.914062 25.738281 8.628906 27.519531 10.738281 27.519531 L 28.578125 27.519531 C 30.683594 27.519531 32.402344 25.738281 32.402344 23.546875 C 32.402344 21.355469 30.683594 19.578125 28.578125 19.578125 " fill-opacity="1" fill-rule="nonzero"/></g><path fill="#100f0d" d="M 14.136719 15.164062 C 14.839844 15.164062 15.410156 15.757812 15.410156 16.488281 C 15.410156 17.21875 14.839844 17.8125 14.136719 17.8125 C 13.429688 17.8125 12.859375 17.21875 12.859375 16.488281 C 12.859375 15.757812 13.429688 15.164062 14.136719 15.164062 Z M 14.136719 18.695312 C 15.304688 18.695312 16.257812 17.707031 16.257812 16.488281 C 16.257812 15.273438 15.304688 14.28125 14.136719 14.28125 C 12.964844 14.28125 12.011719 15.273438 12.011719 16.488281 C 12.011719 17.707031 12.964844 18.695312 14.136719 18.695312 " fill-opacity="1" fill-rule="nonzero"/></svg>